<svg width="170" height="52" viewBox="0 0 170 52" fill="none" xmlns="http://www.w3.org/2000/svg">
<g clip-path="url(#clip0)">
<path d="M79.5387 15.2029C76.5929 13.4932 72.9368 13.4932 69.991 15.2029H69.9647C68.0446 16.3076 66.861 18.3855 66.861 20.5949V24.7244C66.861 26.9338 68.0446 29.0117 69.9647 30.1164L69.991 30.1427C71.4639 30.9844 73.0946 31.4052 74.7517 31.4052C76.4088 31.4052 78.0395 30.9844 79.5124 30.1427L79.5387 30.1164C81.4588 29.0117 82.6424 26.9338 82.6424 24.7244V20.5949C82.6424 18.3592 81.4588 16.3076 79.5387 15.2029ZM78.7497 24.6981C78.7497 25.5135 78.3025 26.3025 77.5924 26.7234L77.5661 26.7497C75.8301 27.7492 73.6733 27.7492 71.9636 26.7497L71.9373 26.7234C71.2272 26.3025 70.78 25.5398 70.78 24.6981V20.5949C70.78 19.7795 71.2272 18.9905 71.9373 18.5696H71.9636C72.8316 18.0699 73.8048 17.8068 74.778 17.8068C75.7512 17.8068 76.7244 18.0699 77.5924 18.5696L77.6187 18.5959C78.3288 19.0168 78.776 19.7795 78.776 20.6212V24.6981H78.7497Z" fill="black"/>
<path d="M114.495 15.2029L114.468 15.1766C111.523 13.4932 107.893 13.4932 104.947 15.1766H104.921C103.001 16.2813 101.817 18.3592 101.817 20.5686V24.6981C101.817 26.9075 103.001 28.9854 104.921 30.0901L104.947 30.1164C106.42 30.9581 108.051 31.3789 109.708 31.3789C111.365 31.3789 112.996 30.9581 114.468 30.1164H114.495C115.81 29.3536 116.809 28.1437 117.283 26.6971L113.574 25.4609C113.39 25.9869 113.022 26.4603 112.522 26.7497H112.496C110.76 27.7492 108.603 27.7492 106.893 26.7497L106.867 26.7234C106.157 26.3025 105.71 25.5398 105.71 24.6981V24.3824H117.598V20.5949C117.598 18.3592 116.389 16.3076 114.495 15.2029ZM105.71 20.4897C105.736 19.7006 106.183 18.9904 106.867 18.5696H106.893C108.629 17.5701 110.786 17.5701 112.496 18.5696L112.522 18.5959C113.206 18.9904 113.653 19.7269 113.679 20.516H105.71V20.4897Z" fill="black"/>
<path d="M166.311 15.203C163.365 13.4934 159.709 13.4934 156.763 15.1767L156.737 15.203C154.816 16.3077 153.633 18.3856 153.633 20.595V24.7245C153.633 26.9339 154.816 29.0118 156.737 30.1165L156.763 30.1428C158.236 30.9845 159.866 31.4054 161.524 31.4054C163.181 31.4054 164.811 30.9845 166.284 30.1428L166.311 30.1165C168.231 29.0118 169.414 26.9339 169.414 24.7245V20.595C169.441 18.3593 168.231 16.3077 166.311 15.203ZM165.548 24.6982C165.548 25.5136 165.101 26.3027 164.391 26.7235L164.364 26.7498C162.628 27.7493 160.471 27.7493 158.762 26.7498L158.735 26.7235C158.025 26.3027 157.578 25.5399 157.578 24.6982V20.595C157.578 19.7797 158.025 18.9906 158.735 18.5698L158.762 18.5434C159.63 18.0437 160.603 17.7807 161.576 17.7807C162.549 17.7807 163.523 18.0437 164.391 18.5434L164.417 18.5698C165.127 18.9906 165.574 19.7534 165.574 20.595V24.6982H165.548Z" fill="black"/>
<path d="M61.1796 7.86452L60.9166 7.70671C57.8655 5.94444 54.0516 5.94444 51.0005 7.70671L50.7375 7.86452C48.6859 9.04814 47.4234 11.2575 47.4234 13.5985V13.8089V18.254V30.9844H51.3162V24.3299C52.7628 25.0926 54.3673 25.4872 55.9717 25.4872C57.6814 25.4872 59.391 25.04 60.9429 24.1721L61.2059 24.0142C63.2575 22.8306 64.52 20.6212 64.52 18.2803V13.6248C64.4937 11.2575 63.2312 9.04814 61.1796 7.86452ZM60.6009 18.254C60.6009 19.2272 60.0749 20.1215 59.2332 20.6212L58.9702 20.779C57.1027 21.8574 54.8144 21.8574 52.9469 20.779L52.6839 20.6212C51.8422 20.1215 51.3162 19.2272 51.3162 18.254V13.8352V13.6248C51.3162 12.6516 51.8422 11.7573 52.6839 11.2575L52.9469 11.0997C53.8675 10.5737 54.9196 10.2844 55.9454 10.2844C56.9975 10.2844 58.0233 10.5474 58.9439 11.0997L59.2069 11.2575C60.0486 11.7573 60.5746 12.6516 60.5746 13.6248V18.254H60.6009Z" fill="black"/>
<path d="M143.769 14.2034C141.323 15.5974 139.824 18.2277 139.824 21.042V30.9318H143.717V21.042C143.717 19.6217 144.48 18.3066 145.716 17.5964C146.952 16.8862 148.478 16.8862 149.714 17.5964L150.818 18.2277L152.765 14.861L151.66 14.2297C149.24 12.8094 146.216 12.8094 143.769 14.2034Z" fill="black"/>
<path d="M89.823 26.3552V6.20752H85.9302V26.3552C85.9302 28.9329 88.0344 31.0371 90.6121 31.0371H91.6379V27.1443H90.6121C90.165 27.118 89.823 26.7761 89.823 26.3552Z" fill="black"/>
<path d="M98.7395 13.4407H94.8467V31.1159H98.7395V13.4407Z" fill="black"/>
<path d="M132.512 14.8085C129.724 13.5197 126.436 13.6249 123.753 15.1767H123.727C121.807 16.2814 120.623 18.3593 120.623 20.5688V24.6982C120.623 26.9077 121.807 28.9855 123.727 30.0903L123.753 30.1166C125.226 30.9582 126.857 31.3791 128.514 31.3791C130.171 31.3791 131.802 30.9582 133.275 30.1166H133.301C135.221 29.0119 136.405 26.934 136.405 24.7245V20.5951C136.405 20.4372 136.378 20.2794 136.378 20.1479H136.405V6.33911H132.512V14.8085ZM132.512 24.6982C132.512 25.5136 132.065 26.3027 131.355 26.7235H131.328C129.592 27.723 127.436 27.723 125.726 26.7235L125.7 26.6972C124.989 26.2764 124.542 25.5136 124.542 24.6719V20.5951C124.542 19.7797 124.989 18.9906 125.7 18.5698H125.726C126.594 18.07 127.567 17.807 128.54 17.807C129.513 17.807 130.487 18.0437 131.328 18.5435L131.355 18.5698C132.065 18.9906 132.512 19.7534 132.512 20.5951V24.6982Z" fill="black"/>
<path d="M96.8984 6.20752C96.1882 6.20752 95.5306 6.57575 95.1624 7.20701C94.7942 7.81197 94.7942 8.57474 95.1624 9.206C95.5306 9.81096 96.1619 10.2055 96.8984 10.2055C97.6086 10.2055 98.2661 9.83726 98.6344 9.206C99.0026 8.60105 99.0026 7.83827 98.6344 7.20701C98.2661 6.57575 97.6086 6.20752 96.8984 6.20752Z" fill="black"/>
<path d="M82.6161 42.8731C82.6161 40.348 83.4052 38.1123 86.9035 38.1123C89.9808 38.1123 91.1118 39.7957 91.1118 41.7157H89.0076C88.8761 40.5847 88.3764 39.822 86.9035 39.822C85.0097 39.822 84.694 41.1634 84.694 42.8731C84.694 44.5827 85.036 45.9241 86.9035 45.9241C88.3764 45.9241 88.8498 45.1614 89.0076 44.0041H91.1118C91.1118 46.0294 90.0071 47.6338 86.9035 47.6338C83.3526 47.6338 82.6161 45.3981 82.6161 42.8731Z" fill="#EE2252"/>
<path d="M92.69 43.7938C92.69 41.8475 93.5054 39.98 96.3723 39.98C99.213 39.98 100.055 41.8212 100.055 43.7938C100.055 45.7928 99.213 47.634 96.346 47.634C93.4791 47.634 92.69 45.7665 92.69 43.7938ZM98.1346 43.7938C98.1346 42.6102 97.7927 41.6633 96.3986 41.6633C95.0309 41.6633 94.6627 42.5839 94.6627 43.7938C94.6627 45.0301 95.0309 45.9243 96.3723 45.9243C97.7138 45.9243 98.1346 45.0301 98.1346 43.7938Z" fill="#EE2252"/>
<path d="M101.87 37.2705H103.842V47.5022H101.87V37.2705Z" fill="#EE2252"/>
<path d="M105.631 43.7938C105.631 41.9526 106.288 39.9799 109.287 39.9799C112.101 39.9799 112.89 42.242 112.68 44.5829H107.656C107.761 45.635 108.393 46.0821 109.261 46.0821C110.155 46.0821 110.47 45.6876 110.602 45.2667H112.706C112.575 46.503 111.733 47.634 109.339 47.634C106.288 47.634 105.631 45.7139 105.631 43.7938ZM106.209 38.1125L111.865 37.0867V38.507L106.209 39.5328V38.1125ZM110.628 43.0573C110.628 42.242 110.181 41.5318 109.129 41.5318C108.13 41.5318 107.709 42.2157 107.656 43.0573H110.628Z" fill="#EE2252"/>
<path d="M113.995 48.0284H116.099C116.178 48.6597 116.283 49.0279 117.835 49.0279C119.203 49.0279 119.44 48.6597 119.44 48.3441C119.44 48.1073 119.071 47.9495 117.493 47.6865C115.836 47.3972 114.1 47.292 114.1 45.8979C114.1 45.1615 114.837 44.7669 115.705 44.6354C114.679 44.2935 114.258 43.3992 114.258 42.7153C114.258 41.3739 114.916 40.1377 118.046 40.1377H121.333V41.0057L120.123 41.4528C120.597 41.6369 121.044 42.2682 121.044 42.9784C121.044 44.3461 120.334 45.4508 117.625 45.4508C116.231 45.4508 116.125 45.5823 116.125 45.7664C116.125 45.9768 116.257 46.0031 118.309 46.2662C119.755 46.4766 121.518 46.6607 121.518 48.2389C121.518 49.3699 120.755 50.6324 117.809 50.6324C114.758 50.6061 113.995 49.6592 113.995 48.0284ZM118.94 42.7679C118.94 42.163 118.729 41.7158 117.598 41.7158C116.52 41.7158 116.257 42.163 116.257 42.7679C116.257 43.4255 116.494 43.8989 117.598 43.8989C118.703 43.8989 118.94 43.4518 118.94 42.7679Z" fill="#EE2252"/>
<path d="M122.649 37.8756C122.649 37.0603 123.175 36.8499 123.911 36.8499C124.648 36.8499 125.147 37.0603 125.147 37.8756C125.147 38.691 124.648 38.9014 123.911 38.9014C123.148 38.9014 122.649 38.691 122.649 37.8756ZM122.912 40.0851H124.911V47.5024H122.912V40.0851Z" fill="#EE2252"/>
<path d="M126.62 43.7938C126.62 41.8475 127.436 39.98 130.303 39.98C133.143 39.98 133.985 41.8212 133.985 43.7938C133.985 45.7928 133.143 47.634 130.276 47.634C127.409 47.634 126.62 45.7665 126.62 43.7938ZM132.038 43.7938C132.038 42.6102 131.697 41.6633 130.303 41.6633C128.935 41.6633 128.567 42.5839 128.567 43.7938C128.567 45.0301 128.935 45.9243 130.276 45.9243C131.644 45.9243 132.038 45.0301 132.038 43.7938Z" fill="#EE2252"/>
<path d="M15.4133 19.9109L33.562 8.96911L18.9115 0.499715C17.7542 -0.18415 16.3076 -0.18415 15.124 0.499715L0.683909 8.94281C-0.236677 9.49516 -0.236677 10.8366 0.683909 11.3626L15.4133 19.9109Z" fill="#1FB4C3"/>
<path d="M2.1042 22.7778L15.7026 30.6422C16.5706 31.142 17.0966 32.0626 17.0966 33.0621V50.5795C17.0966 51.6579 15.9393 52.3418 14.9924 51.7894L1.39403 43.9513C0.52605 43.4515 0 42.5309 0 41.5315V23.9877C0 22.9093 1.15731 22.2517 2.1042 22.7778Z" fill="#FAA41F"/>
<path d="M33.562 8.96924L15.4133 19.9111C16.4654 20.516 17.1229 21.647 17.1229 22.857V41.9263L33.5883 32.4311C34.7456 31.7472 35.482 30.511 35.482 29.1432V12.2307C35.4557 10.8893 34.7456 9.6268 33.562 8.96924Z" fill="#EE2252"/>
</g>
<defs>
<clipPath id="clip0">
<rect width="169.441" height="52" fill="white"/>
</clipPath>
</defs>
</svg>
